<svg width="24" height="24" viewBox="0 0 24 24" fill="none" xmlns="http://www.w3.org/2000/svg">
  <path d="M12 2C13.1 2 14 2.9 14 4C14 5.1 13.1 6 12 6C10.9 6 10 5.1 10 4C10 2.9 10.9 2 12 2Z" fill="#16a34a"/>
  <path d="M21 9C21 13.97 16.97 18 12 18C7.03 18 3 13.97 3 9C3 7.8 3.2 6.65 3.55 5.55L5.75 7.75C6.66 8.66 8.16 8.66 9.07 7.75C9.98 6.84 9.98 5.34 9.07 4.43L6.87 2.23C8.04 1.82 9.28 1.6 10.55 1.55C11.03 1.52 11.51 1.5 12 1.5C12.49 1.5 12.97 1.52 13.45 1.55C14.72 1.6 15.96 1.82 17.13 2.23L14.93 4.43C14.02 5.34 14.02 6.84 14.93 7.75C15.84 8.66 17.34 8.66 18.25 7.75L20.45 5.55C20.8 6.65 21 7.8 21 9Z" fill="#22c55e"/>
  <path d="M12 18V22" stroke="#16a34a" stroke-width="2" stroke-linecap="round"/>
</svg>